<?xml version="1.0" encoding="utf-8"?>
<!-- Generator: Adobe Illustrator 26.0.1, SVG Export Plug-In . SVG Version: 6.00 Build 0)  -->
<svg version="1.1" id="Layer_1" xmlns="http://www.w3.org/2000/svg" xmlns:xlink="http://www.w3.org/1999/xlink" x="0px" y="0px"
	 viewBox="0 0 792 612" style="enable-background:new 0 0 792 612;" xml:space="preserve">
<style type="text/css">
	.st0{fill:none;stroke:#FBB040;stroke-width:60;stroke-miterlimit:10;}
	.st1{fill:#8150CE;}
	.st2{fill:none;stroke:#53F941;stroke-width:60;stroke-miterlimit:10;}
	.st3{fill:#242EEA;}
</style>
<path class="st0" d="M484.4,270.6C572.5,218.7,625.1,165.9,531,161c-94-4.9-245.3,50.4-254.4,158s500.1,10.5,480.2-188.7
	c-15.1-115-395.3-107.8-607.7,95.8S72.8,560.2,239,554.7c166.3-5.6,425.6-55.3,505.9-137.4"/>
<path class="st1" d="M775.3,115.2C742.4,22.6,542.7,25,376,85.8C177.7,151-21.4,322.6,18.1,462.5c37,99.8,222.8,124.2,398.5,96.2
	c21.5-6.8,16.1-29.2,0-25.4c-11.2,2-301.4,44-357.8-88.2C16,323.4,203.9,155.9,380,101c176.1-56,328.3-49.2,355.2,24.8
	C771.5,285,333.1,415.9,295.9,311.4c-11.1-41.9,43.8-82.2,56.1-92.2c0,0,2-11.8,10.9-28c-60.7,29.1-120,90.9-107,133.6
	C295.4,455.5,822.9,305.1,775.3,115.2z M512.2,537.3c43.9-11.1,74.8-21.4,110.8-37.4c16.8-8,10-28.1-13.4-21.3
	c-17.7,6.8-62.2,25-102.8,34.7C488.3,518.2,486.3,542.4,512.2,537.3z M717.8,419.7c-8.8,6.1-19.7,12.1-25.4,16.5
	c-9.5,7.4,4,22.5,17.4,15.5c7.5-3.1,17.3-10.4,22.7-14.7C745.3,424.3,727.7,411.9,717.8,419.7L717.8,419.7z M545.2,246.9
	c-5.8,3.7-11.8,7.1-18,10.3c-11,5.6-22.6,10.2-34.1,13.5l-4-16.9c15.9-6.3,30.5-13.3,42-20.5c3.3-2.1,6.3-4.2,9-6.3
	c2.1-1.6,4-3.2,5.7-4.8c1.8-1.7,3.5-3.5,4.9-5.3c16.6-20.8,10.1-42.1-26-45.4c-6.7-8.2-14.7-15.2-23.7-20.9
	c9.1-0.3,18.5-0.3,28.2-0.1C633.4,150.5,603.3,209.9,545.2,246.9z"/>
<path class="st1" d="M531.1,232.3v0.9c-0.1,8.3-1.4,16.3-3.8,23.8c-10.5,32.7-41.1,56.4-77.3,56.4c-26.1,0-49.2-12.3-64-31.3
	c0,0,0,0,0-0.1c-3.8-4.8-6.9-10.1-9.5-15.7c0,0-0.1-0.1-0.1-0.2c-4.7-10.3-7.4-21.8-7.4-33.9c0-7.4,1-14.5,2.8-21.3
	c2.3-8.5,5.9-16.4,10.6-23.5c4.7-7.1,10.6-13.5,17.2-18.8c13.8-11,31.4-17.6,50.4-17.6c6.1,0,12,0.7,17.8,1.9
	c13.5,3,25.8,9.4,35.8,18.2c12.3,10.8,21.4,25.4,25.4,41.8c0,0,0,0.1,0,0.1C530.3,219.4,531.1,225.7,531.1,232.3z M529,213
	c-0.1,0-0.2,0.1-0.3,0.2c-29.7,18.2-86.7,46.6-152.3,53.1c2.6,5.6,5.8,10.9,9.5,15.7c0,0,0,0,0,0.1c29.1-4.4,69.1-14.9,103.1-28.4
	c15.9-6.3,30.5-13.2,42-20.5v-0.9C531.1,225.7,530.3,219.4,529,213z"/>
<path class="st2" d="M367.6,278.5c61.5-9.6,146.3-42.1,174.8-64.8"/>
<ellipse transform="matrix(0.8922 -0.4517 0.4517 0.8922 -89.7487 211.8445)" class="st3" cx="398.8" cy="293.9" rx="382.5" ry="219.2"/>
</svg>
