<?xml version="1.0" encoding="utf-8"?>
<!-- Generator: Adobe Illustrator 26.0.1, SVG Export Plug-In . SVG Version: 6.00 Build 0)  -->
<svg version="1.1" id="Layer_1" xmlns="http://www.w3.org/2000/svg" xmlns:xlink="http://www.w3.org/1999/xlink" x="0px" y="0px"
	 viewBox="0 0 1190.8 903" style="enable-background:new 0 0 1190.8 903;" xml:space="preserve">
<style type="text/css">
	.st0{fill:none;stroke:#8150CE;stroke-width:80;stroke-miterlimit:10;}
	.st1{fill-rule:evenodd;clip-rule:evenodd;fill:#81DBCE;}
	.st2{fill-rule:evenodd;clip-rule:evenodd;fill:#8150CE;}
	.st3{fill:#1C2D2A;}
	.st4{fill:none;stroke:#FFFFFF;stroke-width:40;stroke-miterlimit:10;}
	.st5{fill-rule:evenodd;clip-rule:evenodd;fill:#CC5292;}
	.st6{fill-rule:evenodd;clip-rule:evenodd;fill:#FFFFFF;}
	.st7{fill-rule:evenodd;clip-rule:evenodd;fill:#CC1292;}
	.st8{fill-rule:evenodd;clip-rule:evenodd;fill:none;stroke:#FFFFFF;stroke-miterlimit:10;}
</style>
<path class="st0" d="M1039.3,523.2c-301.2,230.7-858.5,278-963.1,69.3s513.4-627,845.9-522.3c317.1,99.9-94.4,336.2-146.9,354
	c-52.5,17.7-340.1,99.5-383.1-21.6s335.7-226,375.6-181.9s-12.1,81.8-92.6,121.7"/>
<path class="st1" d="M723.2,279.1c-1.1,0.8-2.2,1.5-3.3,2.3c-43.9,29.4-132.1,60.3-198.1,68.9c-0.6,0.1-1.3,0.2-1.9,0.2
	c-6.8-14.1-10.2-29.9-10.2-46.5c0-59.9,48.2-108.4,108.1-108.4C669,195.7,711.9,231.3,723.2,279.1z"/>
<path class="st1" d="M737.5,304.7c0,8.3-0.8,16.4-2.5,24.2c-1.9,1-3.7,1.9-5.3,2.7c-5.2,2.7-8.6,4.5-8.8,5.3
	C707,381,666,412.3,617.6,412.3c-35,0-66.1-16.6-85.9-42.3c0.7-0.1,1.4-0.1,2.1-0.2c69.9-7.2,149.2-40.5,188.6-62.3
	c0.6-0.3,1.2-0.7,1.8-1c2.3-1.5,5.3-3.4,8.6-5.8c1.4-1,2.9-2.2,4.4-3.4C737.4,299.8,737.5,302.2,737.5,304.7z"/>
<path class="st2" d="M723.2,279.1c-1.1,0.8-2.2,1.5-3.3,2.3c-43.9,29.4-132.1,60.3-198.1,68.9c-0.6,0.1-1.3,0.2-1.9,0.2
	c-6.8-14.1-10.2-29.9-10.2-46.5c0-59.9,48.2-108.4,108.1-108.4C669,195.7,711.9,231.3,723.2,279.1z"/>
<path class="st3" d="M735,328.9c-1.9,1-3.7,1.9-5.3,2.7c-5.2,2.7-8.6,4.5-8.8,5.3C707,381,666,412.3,617.6,412.3
	c-35,0-66.1-16.6-85.9-42.3c0.7-0.1,1.4-0.1,2.1-0.2c69.9-7.2,149.2-40.5,188.6-62.3c0.6-0.3,1.2-0.7,1.8-1c2.3-1.5,5.3-3.4,8.6-5.8
	c1.4-1,2.9-2.2,4.4-3.4c14-11,30.3-28,26.6-45c-9.8-27.9-33.6-25-52-30c-8.9-9.6-22.3-19.2-35.4-26.7c95.1-7.3,136.7,14.6,142,44.4
	C823.1,282.5,763.1,314.5,735,328.9z"/>
<g>
	<path class="st3" d="M1058.2,142.4C1014.5,19.3,748.8,22.5,527,103.3C263.2,190.1-1.6,418.4,51,604.4
		c49.2,132.8,296.4,165.2,530.1,128c28.6-9.1,21.4-38.8,0-33.8c-14.9,2.7-400.9,58.5-476-117.3c-56.9-161.9,193-384.7,427.3-457.8
		c234.3-74.5,436.7-65.4,472.5,33c48.3,211.9-534.9,386-584.4,247c-14.7-55.8,58.3-109.3,74.6-122.6c0,0,2.7-15.7,14.5-37.3
		C428.9,282.3,350,364.5,367.2,421.3C419.8,595.2,1121.5,395.1,1058.2,142.4z"/>
	<path class="st3" d="M708.3,703.9c58.4-14.7,99.5-28.5,147.4-49.8c22.4-10.6,13.3-37.4-17.8-28.4c-23.5,9-82.7,33.2-136.8,46.2
		C676.4,678.5,673.8,710.8,708.3,703.9z"/>
	<path class="st3" d="M981.8,547.5c-11.7,8.1-26.2,16.1-33.8,22c-12.7,9.9,5.3,29.9,23.1,20.6c10-4.1,23-13.8,30.2-19.5
		C1018.3,553.6,994.9,537.1,981.8,547.5L981.8,547.5z"/>
</g>
<path class="st4" d="M492.3,674.5c114.1-26.9,236.8-87.5,251-101.1"/>
<path class="st5" d="M732.8,300.7c-2.1-62.2-53.2-111.9-115.9-111.9c-64,0-116,51.9-116,116s51.9,116,116,116
	c54.8,0,100.7-38,112.8-89c2.1-8.6,3.1-17.6,3.1-26.9C732.8,303.3,732.8,302,732.8,300.7z M719.9,281.4c1.7,7.5,2.6,15.3,2.6,23.3
	c0,0.9,0,1.9,0,2.8c-39.4,21.8-118.7,55.1-188.6,62.3c-4.7-6-8.8-12.5-12.1-19.4C587.7,341.7,676,310.8,719.9,281.4z"/>
<path class="st6" d="M722.4,304.7c0,0.9,0,1.9,0,2.8c-39.4,21.8-118.7,55.1-188.6,62.3c-4.7-6-8.8-12.5-12.1-19.4
	c66-8.6,154.3-39.5,198.1-68.9C721.5,288.9,722.4,296.7,722.4,304.7z"/>
<path class="st7" d="M722.4,307.5c-1.5,57-48.2,102.7-105.5,102.7c-33.7,0-63.8-15.8-83.1-40.5C603.7,362.6,683,329.3,722.4,307.5z"
	/>
<path class="st7" d="M719.9,281.4c-43.9,29.4-132.1,60.3-198.1,68.9c-6.6-13.8-10.4-29.3-10.4-45.6c0-58.3,47.2-105.5,105.5-105.5
	C667.2,199.2,709.2,234.3,719.9,281.4z"/>
<path class="st8" d="M496.5,363.5c97.4-5.1,236.8-69.8,251.9-84.8"/>
</svg>
