<?xml version="1.0" encoding="utf-8"?>
<!-- Generator: Adobe Illustrator 26.0.1, SVG Export Plug-In . SVG Version: 6.00 Build 0)  -->
<svg version="1.1" id="Layer_1" xmlns="http://www.w3.org/2000/svg" xmlns:xlink="http://www.w3.org/1999/xlink" x="0px" y="0px"
	 viewBox="0 0 1190.8 903" style="enable-background:new 0 0 1190.8 903;" xml:space="preserve">
<style type="text/css">
	.st0{fill:none;stroke:#8150CE;stroke-width:80;stroke-miterlimit:10;}
	.st1{fill-rule:evenodd;clip-rule:evenodd;}
	.st2{fill-rule:evenodd;clip-rule:evenodd;fill:#CC5292;}
</style>
<path class="st0" d="M525.1,431.3c102.6-8.1,283.1-93,259.5-148.5s-314.9-90.6-386.9,164.7c-29,110.3,589.7,79.1,634-259
	c23-195.3-942.1-75.4-960.1,425.1c0,221.6,695.4,176.8,951.2-43.4"/>
<path class="st1" d="M509.6,339.2c0-59.9,48.2-108.4,108.1-108.4c51.3,0,94.2,35.6,105.5,83.4c-43,30.4-135.5,63-203.4,71.5
	C513,371.6,509.6,355.8,509.6,339.2L509.6,339.2z"/>
<path class="st1" d="M711.8,257.4c-8.9-9.6-22.3-19.2-35.4-26.7c95.1-7.3,136.7,14.6,142,44.4c6.1,55-96,92.3-97.5,96.9
	c-13.9,44.1-54.9,75.4-103.3,75.4c-35,0-66.1-16.6-85.9-42.3c71.5-6.8,153.4-41.5,192.5-63.5c13.1-8.2,44.6-31.2,39.6-54.2
	C754,259.5,730.2,262.4,711.8,257.4L711.8,257.4z M367.2,456.4c-17.2-56.8,61.7-139,142.4-177.7c-11.8,21.6-14.5,37.3-14.5,37.3
	c-16.3,13.3-89.3,66.8-74.6,122.6c49.5,139,632.7-35.1,584.4-247c-35.8-98.4-238.2-107.5-472.5-33
	C298.1,231.7,48.2,454.5,105.1,616.4c75.1,175.8,461.1,120,476,117.3c21.4-5,28.6,24.7,0,33.8c-233.7,37.2-480.9,4.8-530.1-128
	c-52.6-186,212.2-414.3,476-501.1c221.8-80.8,487.5-84,531.2,39.1C1121.5,430.2,419.8,630.3,367.2,456.4z M701.1,707
	c54.1-13,113.3-37.2,136.8-46.2c31.1-9,40.2,17.8,17.8,28.4c-47.9,21.3-89,35.1-147.4,49.8C673.8,745.9,676.4,713.6,701.1,707z
	 M981.8,582.6c13.1-10.4,36.5,6.1,19.5,23.1c-7.2,5.7-20.2,15.4-30.2,19.5c-17.8,9.3-35.8-10.7-23.1-20.6
	C955.6,598.7,970.1,590.7,981.8,582.6L981.8,582.6z"/>
<circle class="st2" cx="618" cy="339.2" r="108.4"/>
<ellipse transform="matrix(0.9177 -0.3972 0.3972 0.9177 -131.5693 271.9415)" class="st2" cx="590.8" cy="453.6" rx="602" ry="393.1"/>
</svg>
