<?xml version="1.0" encoding="utf-8"?>
<!-- Generator: Adobe Illustrator 26.0.1, SVG Export Plug-In . SVG Version: 6.00 Build 0)  -->
<svg version="1.1" id="Layer_1" xmlns="http://www.w3.org/2000/svg" xmlns:xlink="http://www.w3.org/1999/xlink" x="0px" y="0px"
	 viewBox="0 0 1190.8 903" style="enable-background:new 0 0 1190.8 903;" xml:space="preserve">
<style type="text/css">
	.st0{fill:none;stroke:#8150CE;stroke-width:80;stroke-miterlimit:10;}
	.st1{fill-rule:evenodd;clip-rule:evenodd;}
	.st2{fill-rule:evenodd;clip-rule:evenodd;fill:#CC5292;}
	.st3{fill-rule:evenodd;clip-rule:evenodd;fill:#FFFFFF;}
	.st4{fill:none;stroke:#FFFFFF;stroke-width:80;stroke-miterlimit:10;}
</style>
<path class="st0" d="M525.1,431.3c102.6-8.1,283.1-93,259.5-148.5s-314.9-90.6-386.9,164.7c-29,110.3,589.7,79.1,634-259
	c23-195.3-942.1-75.4-960.1,425.1c0,221.6,695.4,176.8,951.2-43.4"/>
<path class="st1" d="M495.1,316c0,0,2.7-15.7,14.5-37.3C428.9,317.4,350,399.6,367.2,456.4c52.6,173.9,754.3-26.2,691-278.9
	C1014.5,54.4,748.8,57.6,527,138.4C263.2,225.2-1.6,453.5,51,639.5c49.2,132.8,296.4,165.2,530.1,128c28.6-9.1,21.4-38.8,0-33.8
	c-14.9,2.7-400.9,58.5-476-117.3c-56.9-161.9,193-384.7,427.3-457.8c234.3-74.5,436.7-65.4,472.5,33c48.3,211.9-534.9,386-584.4,247
	C405.8,382.8,478.8,329.3,495.1,316z M837.9,660.8c-23.5,9-82.7,33.2-136.8,46.2c-24.7,6.6-27.3,38.9,7.2,32
	c58.4-14.7,99.5-28.5,147.4-49.8C878.1,678.6,869,651.8,837.9,660.8z M981.8,582.6c-11.7,8.1-26.2,16.1-33.8,22
	c-12.7,9.9,5.3,29.9,23.1,20.6c10-4.1,23-13.8,30.2-19.5C1018.3,588.7,994.9,572.2,981.8,582.6z M720.9,372l3.3-30.4
	c13.1-8.2,44.6-31.2,39.6-54.2c-9.8-27.9-33.6-25-52-30c-8.9-9.6-22.3-19.2-35.4-26.7c95.1-7.3,136.7,14.6,142,44.4
	C824.5,330.1,722.4,367.4,720.9,372z"/>
<circle class="st2" cx="617.9" cy="338.5" r="109.3"/>
<path class="st3" d="M733.7,335.1c-70.8,48.8-209,71.7-209,71.7l-10.6-19.4c0,0,120.3-16.9,216.3-77.1L733.7,335.1z"/>
<path class="st4" d="M499.4,401.8c0,0,219.2-61.1,269.2-107.4"/>
</svg>
