<?xml version="1.0" encoding="utf-8"?>
<!-- Generator: Adobe Illustrator 26.0.1, SVG Export Plug-In . SVG Version: 6.00 Build 0)  -->
<svg version="1.1" id="Layer_1" xmlns="http://www.w3.org/2000/svg" xmlns:xlink="http://www.w3.org/1999/xlink" x="0px" y="0px"
	 viewBox="0 0 792 612" style="enable-background:new 0 0 792 612;" xml:space="preserve">
<style type="text/css">
	.st0{fill:#8150CE;}
	.st1{fill:#FFFFFF;}
	.st2{fill:none;stroke:#F7941D;stroke-width:40;stroke-miterlimit:10;}
	.st3{fill:none;stroke:#0E56D8;stroke-width:40;stroke-miterlimit:10;}
</style>
<path class="st0" d="M755.9,123.9c-31.5-88.8-223.3-86.5-383.3-28.2C182.2,158.4-8.9,323.1,29.1,457.3
	c35.5,95.8,213.9,119.2,382.5,92.4c20.6-6.6,15.4-28,0-24.4c-10.8,1.9-289.3,42.2-343.5-84.6C27,323.8,207.4,163.1,376.5,110.3
	c169.1-53.8,315.1-47.2,341,23.8c34.9,152.9-386,278.6-421.7,178.2c-10.6-40.3,42.1-78.9,53.8-88.5c0,0,1.9-11.3,10.5-26.9
	c-58.2,27.9-115.2,87.2-102.8,128.2C295.2,450.7,801.6,306.3,755.9,123.9z M503.4,529.1c42.1-10.6,71.8-20.6,106.4-35.9
	c16.2-7.6,9.6-27-12.8-20.5c-17,6.5-59.7,24-98.7,33.3C480.4,510.8,478.5,534.1,503.4,529.1z M700.8,416.3
	c-8.4,5.8-18.9,11.6-24.4,15.9c-9.2,7.1,3.8,21.6,16.7,14.9c7.2-3,16.6-10,21.8-14.1C727.1,420.7,710.2,408.8,700.8,416.3
	L700.8,416.3z M535,250.4c-5.5,3.5-11.3,6.8-17.3,9.8c-10.6,5.4-21.7,9.8-32.8,12.9l-3.8-16.2c15.3-6.1,29.3-12.7,40.3-19.7
	c3.1-2,6-4,8.7-6c2-1.5,3.8-3.1,5.4-4.7c1.8-1.7,3.4-3.3,4.7-5c15.9-20,9.7-40.4-25-43.6c-6.4-7.8-14.1-14.6-22.7-20
	c8.8-0.3,17.8-0.3,27.1,0C619.7,157.8,590.8,214.9,535,250.4z"/>
<path class="st0" d="M521.5,236.4c0,0.3,0,0.5,0,0.8c-0.1,8-1.4,15.7-3.7,23c-10.1,31.4-39.5,54.2-74.2,54.2
	c-25,0-47.3-11.8-61.6-30.2c-3.6-4.7-6.7-9.8-9.2-15.2c-4.6-9.9-7.1-21-7.1-32.6c0-7.1,0.9-14,2.7-20.5h0
	c4.4-16.3,14-30.4,26.8-40.6c13.3-10.5,30.1-16.9,48.4-16.9c5.9,0,11.6,0.6,17,1.9c13,2.9,24.7,9,34.4,17.5
	c11.8,10.4,20.5,24.3,24.3,40.2C520.7,223.9,521.5,230.1,521.5,236.4z"/>
<g>
	<path class="st1" d="M521.5,236.4c0,0.3,0,0.5,0,0.8c-11,7-25,13.7-40.3,19.7c-32.7,13-71.3,23.1-99.2,27.3
		c-3.6-4.7-6.7-9.8-9.2-15.2c63.2-6.2,118-33.5,146.6-51C520.7,223.9,521.5,230.1,521.5,236.4z"/>
</g>
<path class="st2" d="M485,273.2c79.9-46.5,108.7-108.6,48.5-104.9c-60.1,3.7-258,26.7-258,155.5c0,56.1,348.9,30.4,443.6-105.8
	S601.8,38.1,454.1,81.1C334,116.1,39.7,209.3,39.7,441.7c0,0,78.8,167.5,420.4,88.1c0,0,255.5-73.9,285.2-135"/>
<path class="st3" d="M369.3,280c29.6-4.1,149.4-43.1,164.2-62"/>
</svg>
